<?xml version="1.0" encoding="UTF-8"?>
<svg width="400" height="400" viewBox="0 0 400 400" fill="none" xmlns="http://www.w3.org/2000/svg">
  <g opacity="0.03">
    <path d="M200,200 m-175,0 a175,175 0 1,1 350,0 a175,175 0 1,1 -350,0" stroke="currentColor" fill="none" stroke-width="1"/>
    <path d="M200,200 m-150,0 a150,150 0 1,1 300,0 a150,150 0 1,1 -300,0" stroke="currentColor" fill="none" stroke-width="1"/>
    <path d="M200,200 m-125,0 a125,125 0 1,1 250,0 a125,125 0 1,1 -250,0" stroke="currentColor" fill="none" stroke-width="1"/>
    <path d="M200,25 L200,375 M25,200 L375,200" stroke="currentColor" stroke-width="0.5"/>
    <path d="M200,200 l125,0 a125,125 0 0,1 -125,125 z" fill="currentColor" opacity="0.05"/>
    <path d="M200,200 l0,-125 a125,125 0 0,1 125,125 z" fill="currentColor" opacity="0.05"/>
  </g>
</svg>